<svg xmlns="http://www.w3.org/2000/svg" width="900" height="520" viewBox="0 0 900 520" role="img" aria-label="Les cours de M. Gedion">
  <defs>
    <linearGradient id="g" x1="0" x2="1" y1="0" y2="1">
      <stop offset="0%" stop-color="#4f46e5"/>
      <stop offset="100%" stop-color="#06b6d4"/>
    </linearGradient>
    <filter id="shadow" x="-20%" y="-20%" width="140%" height="140%">
      <feDropShadow dx="0" dy="16" stdDeviation="18" flood-color="#0f172a" flood-opacity="0.18"/>
    </filter>
  </defs>
  <rect width="900" height="520" rx="48" fill="url(#g)"/>
  <circle cx="760" cy="90" r="92" fill="white" opacity=".18"/>
  <circle cx="130" cy="430" r="130" fill="white" opacity=".12"/>
  <g filter="url(#shadow)">
  <circle cx="235" cy="280" r="76" fill="none" stroke="white" stroke-width="11"/>
  <ellipse cx="235" cy="280" rx="120" ry="42" fill="none" stroke="white" stroke-width="8" opacity=".85"/>
  <ellipse cx="235" cy="280" rx="120" ry="42" fill="none" stroke="white" stroke-width="8" opacity=".85" transform="rotate(60 235 280)"/>
  <circle cx="235" cy="280" r="11" fill="white"/>
  <rect x="445" y="185" width="250" height="170" rx="28" fill="#0f172a" opacity=".93"/>
  <text x="480" y="250" font-family="ui-monospace, Menlo, monospace" font-size="28" font-weight="900" fill="#93c5fd">Python</text>
  <text x="480" y="300" font-family="ui-monospace, Menlo, monospace" font-size="28" font-weight="900" fill="#f0abfc">Maths</text>
  <path d="M115 420 C220 360 330 470 430 390 S650 355 760 430" stroke="white" stroke-width="10" fill="none" opacity=".75" stroke-linecap="round"/>
</g>
  <text x="54" y="80" font-family="Inter, Arial, sans-serif" font-size="36" font-weight="900" fill="white">Les cours de M. Gedion</text>
  <text x="56" y="122" font-family="Inter, Arial, sans-serif" font-size="20" font-weight="700" fill="white" opacity=".88">NSI · Physique-Chimie · Mathématiques</text>
</svg>